<?xml version="1.0" encoding="UTF-8" standalone="no"?>
<svg
   xmlns:dc="http://purl.org/dc/elements/1.1/"
   xmlns:cc="http://creativecommons.org/ns#"
   xmlns:rdf="http://www.w3.org/1999/02/22-rdf-syntax-ns#"
   xmlns:svg="http://www.w3.org/2000/svg"
   xmlns="http://www.w3.org/2000/svg"
   xmlns:sodipodi="http://sodipodi.sourceforge.net/DTD/sodipodi-0.dtd"
   xmlns:inkscape="http://www.inkscape.org/namespaces/inkscape"
   viewBox="0 0 244.00453 206.75594"
   version="1.1"
   id="svg12"
   sodipodi:docname="idea.svg"
   inkscape:version="0.92.2 5c3e80d, 2017-08-06"
   inkscape:export-filename="/Users/colombj/github_repo/rdm_promotion/website_build/static/img/newidea.png"
   inkscape:export-xdpi="81.047676"
   inkscape:export-ydpi="81.047676">
  <metadata
     id="metadata18">
    <rdf:RDF>
      <cc:Work
         rdf:about="">
        <dc:format>image/svg+xml</dc:format>
        <dc:type
           rdf:resource="http://purl.org/dc/dcmitype/StillImage" />
        <dc:title></dc:title>
      </cc:Work>
    </rdf:RDF>
  </metadata>
  <defs
     id="defs16" />
  <sodipodi:namedview
     pagecolor="#ffffff"
     bordercolor="#666666"
     borderopacity="1"
     objecttolerance="10"
     gridtolerance="10"
     guidetolerance="10"
     inkscape:pageopacity="0"
     inkscape:pageshadow="2"
     inkscape:window-width="740"
     inkscape:window-height="567"
     id="namedview14"
     showgrid="false"
     inkscape:zoom="1.1414424"
     inkscape:cx="104.48058"
     inkscape:cy="103.37797"
     inkscape:window-x="381"
     inkscape:window-y="199"
     inkscape:window-maximized="0"
     inkscape:current-layer="svg12" />
  <path
     style="fill:#b477a4;stroke-width:1.0000037;fill-opacity:0.79292929"
     inkscape:connector-curvature="0"
     id="path2"
     d="m 160.66227,5.2008293 c -8.91126,-0.026899 -17.65852,1.9354575 -25.50075,7.1560427 -4.83444,4.156609 -8.43174,10.47677 -8.28144,17.249621 0,0 64.71911,7.408565 96.3688,93.490717 10.74432,-0.005 3.84994,3.74044 11.47916,-4.89817 9.75999,-9.45429 1.69065,-22.684497 -4.62513,-31.311307 C 225.37847,76.728956 215.82649,70.347097 211.41436,60.20032 211.00742,50.724028 217.79575,41.439732 213.75823,31.575949 211.55256,21.675167 203.45293,14.70732 194.35166,12.607366 183.84135,8.5893548 172.12001,5.2358285 160.66267,5.2013293 Z"
     sodipodi:nodetypes="ccccccccccc" />
  <path
     style="fill:none;stroke:#cda5c2;stroke-width:9.99962521;stroke-opacity:1"
     inkscape:connector-curvature="0"
     id="path4"
     d="m 124.86032,34.062555 c -19.67446,-20.95034 -56.258541,-18.131198 -73.143376,5.313638 -8.169051,11.116542 10.359187,23.8546 2.713371,32.58781 -7.371009,3.524011 -15.373321,8.413502 -16.946383,17.65368 -1.932996,15.769147 10.13298,29.718447 23.05079,35.408657 6.06596,4.0074 15.615516,2.01919 20.42982,4.2711 3.499743,15.0601 18.36118,22.14796 30.976048,26.52478 17.43956,5.09216 35.89346,-2.56608 49.366,-14.25913 6.20776,-10.25344 16.1119,-18.5602 27.98979,-13.6965 15.34455,2.21922 33.84161,3.47438 45.43335,-9.65165 9.7597,-9.45416 1.68241,-22.677401 -4.63318,-31.305062 -4.7243,-10.158953 -14.27266,-16.534366 -18.6841,-26.681402 -0.40693,-9.476298 6.3864,-18.78321 2.34896,-28.647651 C 211.55576,21.679783 203.46697,14.707686 194.36591,12.6078 175.6818,5.4646137 153.08822,0.44599742 135.16427,12.379485 c -4.8342,4.156702 -8.42723,10.459423 -8.27696,17.232342" />
  <path
     style="fill:none;stroke:#cda5c2;stroke-width:9.99962521;stroke-opacity:1"
     inkscape:connector-curvature="0"
     id="path6"
     d="m 50.774545,149.49243 c -14.580396,-14.88306 -34.156542,18.13971 -14.100804,25.8566 12.371076,10.32664 25.721318,-0.43029 38.420915,-2.3332 12.004987,-6.99712 -0.684738,-24.64025 -8.348898,-30.16872 -5.104297,-2.54472 -13.806654,-1.05446 -15.418883,5.50813" />
  <path
     style="fill:none;stroke:#cda5c2;stroke-width:9.99962521;stroke-opacity:1"
     inkscape:connector-curvature="0"
     id="path8"
     d="m 13.163342,189.39622 c -7.5520553,-6.12568 -12.5413308,11.28252 -3.2046337,11.62385 5.5588707,1.84904 16.2733557,-1.37825 13.2631167,-9.4014 -1.067652,-3.94041 -7.871783,-8.18921 -9.85082,-2.68329" />
  <g
     id="g3720"
     transform="matrix(0.85340124,0,0,0.85340124,19.411205,11.789701)"
     style="stroke-width:1.17178178">
    <path
       id="path2-0"
       d="M 176.84122,122.25405 H 87.979653 c -5.165663,0 -9.353849,-4.18819 -9.353849,-9.35385 V 47.423253 c 0,-5.165664 4.188186,-9.35385 9.353849,-9.35385 h 88.861567 c 5.16566,0 9.35385,4.188186 9.35385,9.35385 V 112.9002 c 0,5.16566 -4.18819,9.35385 -9.35385,9.35385 z M 104.34889,42.746328 H 87.979653 c -2.581662,0 -4.676924,2.095262 -4.676924,4.676925 v 4.676925 h 21.046161 z m 25.72308,0 h -21.04616 v 9.35385 h 21.04616 z m 25.72309,0 H 134.7489 v 9.35385 h 21.04616 z m 25.72309,4.676925 c 0,-2.581663 -2.09527,-4.676925 -4.67693,-4.676925 h -16.36924 v 9.35385 h 21.04617 v 0 z m 0,9.353849 v 0 H 83.302729 v 46.769248 h 98.215421 v 0 z m 0,51.446178 v 0 h -21.04617 v 9.35384 h -4.67692 v -9.35384 H 134.7489 v 9.35384 h -4.67693 v -9.35384 h -21.04616 v 9.35384 h -4.67692 v -9.35384 H 83.302729 v 4.67692 c 0,2.58166 2.095262,4.67692 4.676924,4.67692 h 88.861567 c 2.58166,0 4.67693,-2.09526 4.67693,-4.67692 z M 126.84723,93.64296 c -0.40221,0.32505 -0.89563,0.54954 -1.45218,0.54954 -1.29317,0 -2.33846,-1.04529 -2.33846,-2.338462 V 68.469414 c 0,-1.290831 1.04529,-2.338462 2.33846,-2.338462 0.49809,0 0.93538,0.191754 1.31655,0.458339 l 18.17219,11.392989 c 0.90265,0.320369 1.55742,1.164554 1.55742,2.179446 0,0.760001 -0.38585,1.405416 -0.94708,1.831017 z"
       style="clip-rule:evenodd;fill-rule:evenodd;stroke-width:1.17178178"
       inkscape:connector-curvature="0" />
  </g>
</svg>
