<?xml version="1.0" encoding="UTF-8" standalone="no"?>
<!-- Created with Inkscape (http://www.inkscape.org/) -->

<svg
   xmlns:dc="http://purl.org/dc/elements/1.1/"
   xmlns:cc="http://creativecommons.org/ns#"
   xmlns:rdf="http://www.w3.org/1999/02/22-rdf-syntax-ns#"
   xmlns:svg="http://www.w3.org/2000/svg"
   xmlns="http://www.w3.org/2000/svg"
   xmlns:sodipodi="http://sodipodi.sourceforge.net/DTD/sodipodi-0.dtd"
   xmlns:inkscape="http://www.inkscape.org/namespaces/inkscape"
   version="1.1"
   width="99.818001"
   height="100"
   viewBox="0 0 99.818 100"
   id="Layer_1"
   xml:space="preserve"
   sodipodi:docname="userst.svg"
   inkscape:version="0.92.2 5c3e80d, 2017-08-06"
   inkscape:export-filename="/Users/colombj/github_repo/rdm_promotion/website_build/static/img/userstory.png"
   inkscape:export-xdpi="197.88"
   inkscape:export-ydpi="197.88"><sodipodi:namedview
     pagecolor="#ffffff"
     bordercolor="#666666"
     borderopacity="1"
     objecttolerance="10"
     gridtolerance="10"
     guidetolerance="10"
     inkscape:pageopacity="0"
     inkscape:pageshadow="2"
     inkscape:window-width="738"
     inkscape:window-height="480"
     id="namedview8"
     showgrid="false"
     inkscape:zoom="2.364303"
     inkscape:cx="32.990695"
     inkscape:cy="16.10035"
     inkscape:window-x="0"
     inkscape:window-y="0"
     inkscape:window-maximized="0"
     inkscape:current-layer="Layer_1" /><metadata
     id="metadata15"><rdf:RDF><cc:Work
         rdf:about=""><dc:format>image/svg+xml</dc:format><dc:type
           rdf:resource="http://purl.org/dc/dcmitype/StillImage" /><dc:title></dc:title></cc:Work></rdf:RDF></metadata><defs
     id="defs13" /><path
     d="M 93.152,0 53.331,0 c -3.676,0 -6.666,2.99 -6.666,6.667 l 0,24.446 c 0,3.676 2.99,6.666 6.666,6.666 l 1.398,0 c -0.749,2.27 -2.202,5.447 -4.762,6.983 -0.879,0.525 -1.285,1.585 -0.981,2.562 0.289,0.935 1.152,1.566 2.123,1.566 0.043,0 0.086,-0.002 0.132,-0.004 0.622,-0.037 14.654,-0.988 19.173,-11.107 l 23.036,0 c 0.138,0 0.273,-0.013 0.403,-0.037 3.348,-0.352 5.965,-3.19 5.965,-6.629 l 0,-24.445 C 99.818,2.995 96.829,0.004 93.152,0 z"
     id="path5"
     style="fill:#ba87ab;fill-opacity:1" /><circle
     cx="29.999001"
     cy="47.778999"
     r="11.111"
     id="circle7"
     style="fill:#cda5c2;fill-opacity:1"
     inkscape:export-xdpi="199.08232"
     inkscape:export-ydpi="199.08232" /><path
     d="m 74.431864,87.990864 c 0,-3.069 -0.09425,-5.144694 -4.390745,-5.662932 L 67.162881,82.222 H 71.899 61.664 L 49.999,66.667 C 48.95,65.268 47.304,64.444 45.554,64.444 H 19.745 L 11.11,50.63 V 27.78 C 11.11,24.711 8.623,22.224 5.555,22.224 2.486,22.224 0,24.71 0,27.78 v 24.444 c 0,1.041 0.293,2.062 0.844,2.943 L 9.999,76.806 V 87.78 100 H 47.776 V 82.223 l 6.666,8.888 c 1.05,1.4 2.695,2.224 4.445,2.224 h 8.346 l 3.111814,0.08739 c 4.101372,-0.03061 4.08705,-3.450526 4.08705,-5.431526 z"
     id="path9"
     style="fill:#cda5c2;fill-opacity:1"
     inkscape:connector-curvature="0"
     sodipodi:nodetypes="ssccccsccssssccccccssccs"
     inkscape:export-xdpi="199.08232"
     inkscape:export-ydpi="199.08232" /></svg>